# xmcd
#
# Track frame offsets:
#	150
#	10649
#	22249
#	32818
#	41583
#	51839
#	61178
#	72010
#	84646
#	95711
#	106694
#	116836
#	129966
#	140257
#	149943
#	160026
#	171322
#	180222
#	191894
#	201883
#	214227
#	224753
#	233598
#	246332
#	257326
#	268099
#	279856
#	289961
#	303434
#	314031
#	323358
#	333414
#
# Disc length: 4600 seconds
#
# Revision: 0
# Processed by: cddbd v1.4PL0 Copyright (c) Steve Scherf et al.
# Submitted via: dBpowerAMP V4.0
#
DISCID=e111f620
DTITLE=Faron Young - The Classic Years (1952-1962)
DYEAR=1992
DGENRE=Country
TTITLE0=Riverboat
TTITLE1=Country Girl
TTITLE2=Face to the Wall
TTITLE3=There's Not Any Like You Left
TTITLE4=Forget the Past
TTITLE5=A World So Full of Love
TTITLE6=Hello Walls
TTITLE7=Is She All You Thought She'd Be
TTITLE8=Congratulations
TTITLE9=Three Days
TTITLE10=Safely in Love Again
TTITLE11=Down By the River
TTITLE12=The Part Where I Cry
TTITLE13=I Hear You Talkin'
TTITLE14=Big Shoes
TTITLE15=Believing It Yourself
TTITLE16=The Comeback
TTITLE17=Overlonely and Underkissed
TTITLE18=Things to Remember
TTITLE19=I Fall to Pieces
TTITLE20=A Moment Isn't Very Long
TTITLE21=Goin' Steady
TTITLE22=Moments to Remember
TTITLE23=Three Days
TTITLE24=A Lifetime Isn't Long Enough
TTITLE25=I Can't Find the Time
TTITLE26=Trail of Tears
TTITLE27=I Let It Slip Away
TTITLE28=Let's Pretend We're Lovers Again
TTITLE29=Backtrack
TTITLE30=How Can I Forget You
TTITLE31=I Can't Find the Time
EXTD=submitted by Tom Sutpen
EXTT0=
EXTT1=
EXTT2=
EXTT3=
EXTT4=
EXTT5=
EXTT6=
EXTT7=
EXTT8=
EXTT9=
EXTT10=
EXTT11=
EXTT12=
EXTT13=
EXTT14=
EXTT15=
EXTT16=
EXTT17=
EXTT18=
EXTT19=
EXTT20=
EXTT21=
EXTT22=
EXTT23=
EXTT24=
EXTT25=
EXTT26=
EXTT27=
EXTT28=
EXTT29=
EXTT30=
EXTT31=
PLAYORDER=
